<svg width="1536" height="1536" viewBox="0 0 1536 1536" fill="none" xmlns="http://www.w3.org/2000/svg">
<rect width="1536" height="1536" fill="white"/>
<path fill-rule="evenodd" clip-rule="evenodd" d="M1124.74 684.916C1072.91 749.014 964.177 872.216 919.027 922.624L918.961 922.697V694.437C918.961 687.617 914.116 682.749 908.303 680.797C901.516 679.825 895.696 682.749 892.786 688.59C892.786 689.569 846.242 795.773 787.097 865.919C737.642 925.355 693.033 961.4 628.068 961.4C532.076 961.4 467.105 870.787 465.162 726.593C463.227 582.392 514.617 454.755 597.041 368.045C647.463 314.457 708.55 285.225 770.605 285.225C849.151 285.225 892.786 337.841 892.786 433.322C892.786 538.548 828.789 649.621 775.457 713.925C770.605 719.773 772.547 729.517 778.367 734.386C784.187 739.261 793.877 738.282 798.729 732.434C854.971 665.212 922.846 544.395 922.846 431.371C922.846 331.993 871.456 256 769.637 256C699.82 256 630.978 288.149 574.736 347.578C487.474 440.142 432.2 575.572 435.11 726.593C438.987 922.431 541.767 991.605 627.101 991.605C710.492 991.605 766.727 938.023 809.394 883.455C842.364 841.562 872.424 790.891 890.844 753.874C891.54 790.912 891.735 877.573 891.798 953.104C880.429 965.863 868.866 978.909 856.907 992.577C782.245 1078.32 717.28 1139.7 717.28 1205.95C717.28 1249.8 747.34 1280 790.007 1280C825.879 1280 863.694 1262.46 890.844 1210.83C910.239 1173.81 918.961 1118.27 918.961 1033.5V963.226C965.534 910.435 1098.23 761.711 1147.04 703.058C1147.04 703.058 1158.2 691.928 1147.04 680.797C1135.89 669.667 1124.74 684.916 1124.74 684.916ZM862.726 1200.11C885.999 1157.24 891.818 1091.96 891.818 1033.5V1033.29C891.818 1021.57 891.818 1008.36 891.811 994.242C886.994 999.796 882.142 1005.41 877.269 1011.09C798.729 1102.68 746.372 1153.34 746.372 1204.01C746.372 1232.26 762.85 1250.78 790.007 1250.78C823.944 1250.78 846.242 1230.31 862.726 1200.11Z" fill="black"/>
</svg>
